<svg xmlns="http://www.w3.org/2000/svg" fill="currentColor" stroke="currentColor" xmlns:xlink="http://www.w3.org/1999/xlink" width="507" zoomAndPan="magnify" viewBox="0 0 380.25 80.999996" height="108" preserveAspectRatio="xMidYMid meet" version="1.0"><defs><g/><clipPath id="c423648470"><path d="M 86 12 L 140 12 L 140 41 L 86 41 Z M 86 12 " clip-rule="nonzero"/></clipPath><clipPath id="0fe496a078"><path d="M 95.800781 -5.734375 L 170.921875 11.605469 L 153.582031 86.726562 L 78.460938 69.386719 Z M 95.800781 -5.734375 " clip-rule="nonzero"/></clipPath><clipPath id="d1f4f631f9"><path d="M 95.800781 -5.734375 L 170.921875 11.605469 L 153.582031 86.726562 L 78.460938 69.386719 Z M 95.800781 -5.734375 " clip-rule="nonzero"/></clipPath><clipPath id="29193b21a0"><path d="M 110 40 L 164 40 L 164 69 L 110 69 Z M 110 40 " clip-rule="nonzero"/></clipPath><clipPath id="dccb14da76"><path d="M 95.800781 -5.734375 L 170.921875 11.605469 L 153.582031 86.726562 L 78.460938 69.386719 Z M 95.800781 -5.734375 " clip-rule="nonzero"/></clipPath><clipPath id="1b68f4f041"><path d="M 95.800781 -5.734375 L 170.921875 11.605469 L 153.582031 86.726562 L 78.460938 69.386719 Z M 95.800781 -5.734375 " clip-rule="nonzero"/></clipPath><clipPath id="17c850378e"><path d="M 124 1 L 153 1 L 153 55 L 124 55 Z M 124 1 " clip-rule="nonzero"/></clipPath><clipPath id="e7f4c32813"><path d="M 95.800781 -5.734375 L 170.921875 11.605469 L 153.582031 86.726562 L 78.460938 69.386719 Z M 95.800781 -5.734375 " clip-rule="nonzero"/></clipPath><clipPath id="25b6c59e64"><path d="M 95.800781 -5.734375 L 170.921875 11.605469 L 153.582031 86.726562 L 78.460938 69.386719 Z M 95.800781 -5.734375 " clip-rule="nonzero"/></clipPath><clipPath id="a75a659aa0"><path d="M 96 26 L 125 26 L 125 80 L 96 80 Z M 96 26 " clip-rule="nonzero"/></clipPath><clipPath id="b26240cfab"><path d="M 95.800781 -5.734375 L 170.921875 11.605469 L 153.582031 86.726562 L 78.460938 69.386719 Z M 95.800781 -5.734375 " clip-rule="nonzero"/></clipPath><clipPath id="c30b53e273"><path d="M 95.800781 -5.734375 L 170.921875 11.605469 L 153.582031 86.726562 L 78.460938 69.386719 Z M 95.800781 -5.734375 " clip-rule="nonzero"/></clipPath></defs><g clip-path="url(#c423648470)"><g clip-path="url(#0fe496a078)"><g clip-path="url(#d1f4f631f9)"><path fill="#205ce9" d="M 132.949219 15.042969 C 128.867188 14.101562 124.792969 16.457031 123.515625 20.363281 L 118.203125 19.136719 C 118.527344 16.136719 116.566406 13.296875 113.550781 12.601562 C 110.296875 11.851562 107.050781 13.878906 106.300781 17.132812 C 106.082031 18.082031 106.097656 19.027344 106.3125 19.914062 L 100.234375 22.179688 C 99.601562 21.058594 98.519531 20.195312 97.167969 19.882812 C 94.621094 19.292969 92.082031 20.882812 91.492188 23.429688 C 91.058594 25.316406 91.820312 27.203125 93.28125 28.292969 L 90.613281 33.347656 C 90.554688 33.328125 90.492188 33.3125 90.429688 33.296875 C 88.519531 32.859375 86.613281 34.050781 86.171875 35.960938 C 85.734375 37.867188 86.921875 39.773438 88.832031 40.214844 C 90.742188 40.65625 92.648438 39.464844 93.089844 37.554688 C 93.402344 36.203125 92.894531 34.851562 91.890625 34.023438 L 94.558594 28.964844 C 94.714844 29.019531 94.875 29.0625 95.039062 29.101562 C 97.585938 29.691406 100.125 28.101562 100.714844 25.554688 C 100.871094 24.871094 100.871094 24.183594 100.738281 23.535156 L 106.820312 21.269531 C 107.605469 22.789062 109.03125 23.96875 110.832031 24.386719 C 113.847656 25.082031 116.855469 23.390625 117.878906 20.546875 L 123.191406 21.773438 C 122.625 25.847656 125.257812 29.75 129.339844 30.691406 C 133.660156 31.6875 137.972656 28.996094 138.96875 24.675781 C 139.96875 20.351562 137.273438 16.042969 132.949219 15.042969 " fill-opacity="1" fill-rule="nonzero"/></g></g></g><g clip-path="url(#29193b21a0)"><g clip-path="url(#dccb14da76)"><g clip-path="url(#1b68f4f041)"><path fill="#205ce9" d="M 116.421875 65.9375 C 120.507812 66.878906 124.582031 64.523438 125.859375 60.617188 L 131.171875 61.84375 C 130.847656 64.84375 132.808594 67.683594 135.824219 68.378906 C 139.078125 69.128906 142.324219 67.101562 143.074219 63.847656 C 143.292969 62.898438 143.277344 61.953125 143.0625 61.066406 L 149.140625 58.800781 C 149.773438 59.921875 150.855469 60.789062 152.207031 61.101562 C 154.753906 61.6875 157.292969 60.097656 157.882812 57.554688 C 158.316406 55.664062 157.554688 53.777344 156.09375 52.691406 L 158.761719 47.632812 C 158.820312 47.652344 158.882812 47.667969 158.945312 47.683594 C 160.855469 48.125 162.761719 46.933594 163.203125 45.023438 C 163.644531 43.113281 162.453125 41.207031 160.542969 40.765625 C 158.632812 40.324219 156.726562 41.515625 156.285156 43.425781 C 155.972656 44.78125 156.480469 46.128906 157.484375 46.960938 L 154.816406 52.015625 C 154.660156 51.960938 154.5 51.917969 154.335938 51.878906 C 151.789062 51.292969 149.25 52.878906 148.660156 55.425781 C 148.503906 56.113281 148.503906 56.796875 148.636719 57.445312 L 142.554688 59.714844 C 141.769531 58.191406 140.34375 57.011719 138.542969 56.597656 C 135.527344 55.902344 132.519531 57.59375 131.496094 60.433594 L 126.183594 59.207031 C 126.75 55.132812 124.121094 51.230469 120.035156 50.289062 C 115.714844 49.292969 111.402344 51.988281 110.40625 56.308594 C 109.40625 60.628906 112.101562 64.941406 116.421875 65.9375 " fill-opacity="1" fill-rule="nonzero"/></g></g></g><g clip-path="url(#17c850378e)"><g clip-path="url(#e7f4c32813)"><g clip-path="url(#25b6c59e64)"><path fill="#2f3337" d="M 150.132812 48.753906 C 151.078125 44.671875 148.722656 40.597656 144.8125 39.320312 L 146.039062 34.007812 C 149.039062 34.332031 151.878906 32.371094 152.574219 29.355469 C 153.328125 26.101562 151.296875 22.855469 148.042969 22.101562 C 147.097656 21.882812 146.148438 21.902344 145.265625 22.117188 L 142.996094 16.035156 C 144.121094 15.40625 144.984375 14.324219 145.296875 12.972656 C 145.882812 10.425781 144.296875 7.882812 141.75 7.296875 C 139.859375 6.859375 137.976562 7.621094 136.886719 9.085938 L 131.832031 6.417969 C 131.847656 6.355469 131.863281 6.292969 131.878906 6.230469 C 132.320312 4.324219 131.128906 2.417969 129.21875 1.976562 C 127.308594 1.535156 125.402344 2.726562 124.964844 4.636719 C 124.523438 6.546875 125.714844 8.453125 127.625 8.890625 C 128.976562 9.203125 130.328125 8.695312 131.15625 7.695312 L 136.210938 10.363281 C 136.160156 10.519531 136.113281 10.679688 136.074219 10.84375 C 135.488281 13.390625 137.074219 15.929688 139.621094 16.515625 C 140.308594 16.675781 140.996094 16.675781 141.644531 16.542969 L 143.910156 22.621094 C 142.390625 23.410156 141.207031 24.835938 140.792969 26.632812 C 140.097656 29.648438 141.789062 32.660156 144.628906 33.679688 L 143.40625 38.992188 C 139.332031 38.429688 135.429688 41.058594 134.488281 45.140625 C 133.488281 49.464844 136.183594 53.777344 140.503906 54.773438 C 144.824219 55.769531 149.136719 53.074219 150.132812 48.753906 " fill-opacity="1" fill-rule="nonzero"/></g></g></g><g clip-path="url(#a75a659aa0)"><g clip-path="url(#b26240cfab)"><g clip-path="url(#c30b53e273)"><path fill="#2f3337" d="M 99.242188 32.226562 C 98.296875 36.3125 100.652344 40.386719 104.5625 41.664062 L 103.335938 46.976562 C 100.335938 46.648438 97.496094 48.613281 96.800781 51.628906 C 96.046875 54.878906 98.078125 58.128906 101.332031 58.878906 C 102.277344 59.097656 103.226562 59.078125 104.109375 58.863281 L 106.378906 64.945312 C 105.253906 65.574219 104.390625 66.65625 104.078125 68.011719 C 103.492188 70.558594 105.078125 73.097656 107.625 73.683594 C 109.515625 74.121094 111.402344 73.359375 112.488281 71.898438 L 117.542969 74.566406 C 117.527344 74.625 117.511719 74.6875 117.496094 74.75 C 117.054688 76.660156 118.246094 78.566406 120.15625 79.003906 C 122.066406 79.445312 123.972656 78.253906 124.410156 76.34375 C 124.851562 74.4375 123.660156 72.53125 121.753906 72.089844 C 120.398438 71.777344 119.046875 72.285156 118.21875 73.285156 L 113.164062 70.617188 C 113.214844 70.460938 113.261719 70.300781 113.300781 70.136719 C 113.886719 67.59375 112.300781 65.050781 109.753906 64.464844 C 109.066406 64.304688 108.378906 64.304688 107.730469 64.441406 L 105.464844 58.359375 C 106.984375 57.570312 108.164062 56.148438 108.582031 54.347656 C 109.277344 51.332031 107.585938 48.324219 104.746094 47.300781 L 105.972656 41.988281 C 110.042969 42.550781 113.945312 39.921875 114.890625 35.839844 C 115.886719 31.515625 113.191406 27.207031 108.871094 26.207031 C 104.550781 25.210938 100.238281 27.90625 99.242188 32.226562 " fill-opacity="1" fill-rule="nonzero"/></g></g></g><g fill="#205ce9" fill-opacity="1"><g transform="translate(27.499999, 77.867396)"><g><path d="M -21.953125 -11.875 C -21.953125 -19.550781 -18.289062 -23.390625 -10.96875 -23.390625 C -3.65625 -23.390625 0 -19.550781 0 -11.875 L 0 -2.359375 L -21.953125 -2.359375 Z M -5.265625 -9.40625 L -5.265625 -11.734375 C -5.265625 -14.691406 -6.847656 -16.171875 -10.015625 -16.171875 L -11.9375 -16.171875 C -15.101562 -16.171875 -16.6875 -14.691406 -16.6875 -11.734375 L -16.6875 -9.40625 Z M -5.265625 -9.40625 "/></g></g></g><g fill="#205ce9" fill-opacity="1"><g transform="translate(27.499999, 53.044695)"><g><path d="M -21.953125 -2.359375 L -21.953125 -21.34375 L -16.6875 -21.34375 L -16.6875 -9.40625 L -13.65625 -9.40625 L -13.65625 -19.625 L -8.609375 -19.625 L -8.609375 -9.40625 L -5.265625 -9.40625 L -5.265625 -21.5625 L 0 -21.5625 L 0 -2.359375 Z M -21.953125 -2.359375 "/></g></g></g><g fill="#205ce9" fill-opacity="1"><g transform="translate(27.499999, 30.008725)"><g><path d="M 0 -8.328125 L -21.953125 -0.546875 L -21.953125 -8.078125 L -7.28125 -12.46875 L -7.28125 -12.609375 L -21.953125 -17.03125 L -21.953125 -24.25 L 0 -16.5 Z M 0 -8.328125 "/></g></g></g><g fill="#2f3337" fill-opacity="1"><g transform="translate(156.210821, 76.477893)"><g><path d="M 65.71875 -3.429688 L 50.601562 -25.410156 C 57.25 -27.660156 65.503906 -35.488281 65.503906 -46.742188 C 65.503906 -53.605469 63.253906 -59.714844 59.285156 -63.574219 C 54.785156 -68.078125 49.636719 -70.4375 37.953125 -70.4375 L 10.933594 -70.4375 C 8.46875 -70.4375 7.933594 -69.257812 7.933594 -67.328125 L 7.933594 -3.109375 C 7.933594 -0.644531 9.003906 0 10.933594 0 L 21.550781 0 C 23.480469 0 24.660156 -0.644531 24.660156 -3.109375 L 24.660156 -55.425781 L 38.917969 -55.425781 C 44.492188 -55.425781 48.78125 -51.890625 48.78125 -46.316406 C 48.78125 -41.277344 43.847656 -37.628906 38.59375 -37.628906 L 36.453125 -37.628906 C 33.984375 -37.628906 33.34375 -36.453125 33.34375 -34.523438 L 33.34375 -25.945312 C 33.34375 -22.941406 33.554688 -21.761719 34.523438 -20.476562 L 46.101562 -3.214844 C 47.601562 -0.964844 48.886719 0 51.460938 0 L 64.113281 0 C 66.148438 0 66.683594 -1.929688 65.71875 -3.429688 Z M 65.71875 -3.429688 "/></g></g></g><g fill="#2f3337" fill-opacity="1"><g transform="translate(217.212459, 76.477893)"><g><path d="M 55.640625 -70.542969 L 5.898438 -70.542969 C 3.429688 -70.542969 2.789062 -69.363281 2.789062 -67.433594 L 2.789062 -58.535156 C 2.789062 -56.605469 3.429688 -55.425781 5.898438 -55.425781 L 22.40625 -55.425781 L 22.40625 -3.109375 C 22.40625 -0.644531 23.585938 0 25.515625 0 L 36.128906 0 C 38.058594 0 39.238281 -0.644531 39.238281 -3.109375 L 39.238281 -55.425781 L 55.640625 -55.425781 C 58.109375 -55.425781 58.75 -56.605469 58.75 -58.535156 L 58.75 -67.433594 C 58.75 -69.363281 58.109375 -70.542969 55.640625 -70.542969 Z M 55.640625 -70.542969 "/></g></g></g><g fill="#2f3337" fill-opacity="1"><g transform="translate(22.3595, 73.939053)"><g><path d="M 35.160156 -70.535156 L 11.042969 -70.535156 C 8.574219 -70.535156 7.933594 -69.355469 7.933594 -67.425781 L 7.933594 -3.109375 C 7.933594 -0.644531 9.113281 0 11.042969 0 L 21.652344 0 C 23.582031 0 24.761719 -0.644531 24.761719 -3.109375 L 24.761719 -20.902344 L 35.050781 -20.902344 C 53.382812 -20.902344 63.246094 -30.765625 63.246094 -45.664062 C 63.246094 -60.457031 53.597656 -70.535156 35.160156 -70.535156 Z M 35.050781 -35.375 L 24.761719 -35.375 L 24.761719 -55.417969 L 35.050781 -55.417969 C 43.414062 -55.417969 47.058594 -50.917969 47.058594 -45.34375 C 47.058594 -39.984375 43.414062 -35.375 35.050781 -35.375 Z M 35.050781 -35.375 "/></g></g></g><g fill="#2f3337" fill-opacity="1"><g transform="translate(255.311156, 76.477893)"><g><path d="M 68.613281 -3 L 44.921875 -67.21875 C 43.957031 -69.472656 42.882812 -70.542969 40.523438 -70.542969 L 30.234375 -70.542969 C 27.875 -70.542969 26.695312 -69.472656 25.835938 -67.21875 L 2.035156 -3 C 1.5 -1.714844 1.5 0 3.859375 0 L 15.117188 0 C 17.476562 0 18.332031 -0.644531 19.191406 -3.214844 L 22.191406 -11.6875 L 48.457031 -11.6875 L 51.460938 -3.214844 C 52.316406 -0.644531 53.175781 0 55.535156 0 L 66.792969 0 C 69.148438 0 69.148438 -1.714844 68.613281 -3 Z M 35.378906 -50.386719 L 43.417969 -26.695312 L 27.339844 -26.695312 Z M 35.378906 -50.386719 "/></g></g></g><g fill="#2f3337" fill-opacity="1"><g transform="translate(316.741642, 76.477893)"><g><path d="M 55.640625 -15.007812 L 24.765625 -15.007812 L 24.765625 -67.433594 C 24.765625 -69.902344 23.585938 -70.542969 21.65625 -70.542969 L 11.042969 -70.542969 C 9.113281 -70.542969 7.933594 -69.902344 7.933594 -67.433594 L 7.933594 -3.109375 C 7.933594 -1.179688 8.578125 0 11.042969 0 L 55.640625 0 C 58.109375 0 58.75 -1.179688 58.75 -3.109375 L 58.75 -11.898438 C 58.75 -13.828125 58.109375 -15.007812 55.640625 -15.007812 Z M 55.640625 -15.007812 "/></g></g></g></svg>